<svg width="50" height="50" viewBox="0 0 50 50" fill="none" xmlns="http://www.w3.org/2000/svg">
<path d="M25 27.0833C23.2639 27.0833 21.7882 26.4757 20.573 25.2604C19.3577 24.0451 18.75 22.5694 18.75 20.8333C18.75 19.0972 19.3577 17.6215 20.573 16.4062C21.7882 15.1909 23.2639 14.5833 25 14.5833C26.7362 14.5833 28.2118 15.1909 29.4271 16.4062C30.6424 17.6215 31.25 19.0972 31.25 20.8333C31.25 22.5694 30.6424 24.0451 29.4271 25.2604C28.2118 26.4757 26.7362 27.0833 25 27.0833ZM12.5 47.9166V31.8229C11.1806 30.3645 10.1563 28.6979 9.42712 26.8229C8.69796 24.9479 8.33337 22.9513 8.33337 20.8333C8.33337 16.1805 9.94796 12.2395 13.1771 9.01038C16.4063 5.78121 20.3473 4.16663 25 4.16663C29.6528 4.16663 33.5938 5.78121 36.823 9.01038C40.0521 12.2395 41.6667 16.1805 41.6667 20.8333C41.6667 22.9513 41.3021 24.9479 40.573 26.8229C39.8438 28.6979 38.8195 30.3645 37.5 31.8229V47.9166L25 43.75L12.5 47.9166ZM25 33.3333C28.4723 33.3333 31.4237 32.118 33.8542 29.6875C36.2848 27.2569 37.5 24.3055 37.5 20.8333C37.5 17.3611 36.2848 14.4097 33.8542 11.9791C31.4237 9.54857 28.4723 8.33329 25 8.33329C21.5278 8.33329 18.5764 9.54857 16.1459 11.9791C13.7153 14.4097 12.5 17.3611 12.5 20.8333C12.5 24.3055 13.7153 27.2569 16.1459 29.6875C18.5764 32.118 21.5278 33.3333 25 33.3333Z" fill="#3FAEFF"/>
</svg>
