<svg width="50" height="50" viewBox="0 0 50 50" fill="none" xmlns="http://www.w3.org/2000/svg">
<g clip-path="url(#clip0_33_1731)">
<path fill-rule="evenodd" clip-rule="evenodd" d="M32.6708 6.83752C33.4084 6.10043 34.3956 5.66669 35.4374 5.62194C36.4792 5.5772 37.4999 5.92471 38.2979 6.59586L38.5625 6.83752L40.0354 8.31252C40.7722 9.04973 41.206 10.0363 41.2511 11.0776C41.2962 12.1189 40.9495 13.1393 40.2792 13.9375L40.0375 14.2042L38.5625 15.6771C38.4356 15.8037 38.3005 15.922 38.1583 16.0313C38.3406 16.6848 38.3605 17.3729 38.2164 18.0359C38.0723 18.6989 37.7684 19.3166 37.3313 19.8354L37.0896 20.0959L35.0271 22.1584C36.4599 23.4292 37.6069 24.9895 38.3923 26.7362C39.1777 28.483 39.5837 30.3765 39.5833 32.2917C39.5833 35.7167 38.3125 38.8438 36.2167 41.2292L35.8125 41.6667H41.6667C42.1977 41.6673 42.7084 41.8706 43.0945 42.2351C43.4806 42.5996 43.713 43.0978 43.7441 43.6279C43.7752 44.158 43.6028 44.68 43.262 45.0872C42.9211 45.4944 42.4377 45.7561 41.9104 45.8188L41.6667 45.8334H8.33334C7.80235 45.8328 7.29161 45.6294 6.90549 45.2649C6.51938 44.9004 6.28702 44.4022 6.2559 43.8721C6.22478 43.342 6.39725 42.8201 6.73806 42.4129C7.07888 42.0057 7.56231 41.744 8.08959 41.6813L8.33334 41.6667H26.0417C27.9225 41.6669 29.76 41.1014 31.3152 40.0436C32.8704 38.9859 34.0715 37.4848 34.7624 35.7354C35.4533 33.986 35.6021 32.0693 35.1893 30.2343C34.7765 28.3993 33.8214 26.7309 32.4479 25.4459L32.0729 25.1125L25.3042 31.8834C24.5667 32.6199 23.58 33.0532 22.5387 33.098C21.4974 33.1427 20.4771 32.7956 19.6792 32.125L19.4125 31.8813L14.9938 27.4625C14.2564 26.7252 13.8222 25.7382 13.7771 24.6964C13.732 23.6546 14.0791 22.6338 14.75 21.8354L14.9938 21.5709L26.7792 9.78544C27.301 9.26345 27.9521 8.88943 28.6659 8.70164C29.3797 8.51386 30.1305 8.51905 30.8417 8.71669L31.0125 8.50836L31.1979 8.31252L32.6708 6.83752ZM13.5208 28.9375L17.9375 33.3563C18.1366 33.5483 18.2955 33.7781 18.4049 34.0322C18.5142 34.2863 18.5719 34.5596 18.5745 34.8362C18.5771 35.1129 18.5246 35.3872 18.42 35.6433C18.3154 35.8994 18.1609 36.1321 17.9654 36.3279C17.7699 36.5236 17.5374 36.6785 17.2815 36.7834C17.0255 36.8884 16.7512 36.9413 16.4746 36.9391C16.198 36.9369 15.9246 36.8796 15.6703 36.7706C15.4161 36.6616 15.1861 36.503 14.9938 36.3042L10.5729 31.8834C10.3795 31.6898 10.2261 31.46 10.1215 31.2072C10.0168 30.9543 9.96303 30.6833 9.96313 30.4097C9.96323 30.1361 10.0172 29.8651 10.122 29.6123C10.2268 29.3596 10.3804 29.1299 10.574 28.9365C10.7675 28.7431 10.9973 28.5896 11.2501 28.485C11.503 28.3804 11.774 28.3266 12.0476 28.3267C12.3213 28.3268 12.5922 28.3808 12.845 28.4856C13.0978 28.5904 13.3274 28.744 13.5208 28.9375ZM35.6167 9.78752L34.1438 11.2604L35.6167 12.7334L37.0896 11.2604L35.6167 9.78752Z" fill="#3FAEFF"/>
</g>
<defs>
<clipPath id="clip0_33_1731">
<rect width="50" height="50" fill="white"/>
</clipPath>
</defs>
</svg>
