<svg width="50" height="50" viewBox="0 0 50 50" fill="none" xmlns="http://www.w3.org/2000/svg">
<g clip-path="url(#clip0_33_1738)">
<path d="M23.9281 19.5219C24.2719 18.4906 25.7281 18.4906 26.0719 19.5219L28.0875 25.575C28.5312 26.9057 29.2787 28.1147 30.2708 29.1062C31.2629 30.0977 32.4723 30.8446 33.8031 31.2875L39.8531 33.3031C40.8844 33.6469 40.8844 35.1031 39.8531 35.4469L33.8 37.4625C32.4694 37.9062 31.2604 38.6537 30.2688 39.6458C29.2773 40.6379 28.5305 41.8473 28.0875 43.1781L26.0719 49.2281C25.9978 49.454 25.8542 49.6506 25.6618 49.79C25.4693 49.9294 25.2377 50.0045 25 50.0045C24.7624 50.0045 24.5308 49.9294 24.3383 49.79C24.1458 49.6506 24.0023 49.454 23.9281 49.2281L21.9125 43.175C21.4692 41.8447 20.7221 40.6359 19.7306 39.6444C18.7391 38.6529 17.5303 37.9059 16.2 37.4625L10.1469 35.4469C9.92108 35.3728 9.72443 35.2292 9.58502 35.0368C9.44561 34.8443 9.37055 34.6127 9.37055 34.375C9.37055 34.1374 9.44561 33.9058 9.58502 33.7133C9.72443 33.5208 9.92108 33.3773 10.1469 33.3031L16.2 31.2875C17.5303 30.8442 18.7391 30.0971 19.7306 29.1056C20.7221 28.1141 21.4692 26.9053 21.9125 25.575L23.9281 19.5219ZM11.8563 3.58752C11.9011 3.45219 11.9874 3.33442 12.103 3.25096C12.2185 3.16749 12.3575 3.12256 12.5 3.12256C12.6426 3.12256 12.7815 3.16749 12.8971 3.25096C13.0126 3.33442 13.099 3.45219 13.1438 3.58752L14.3531 7.21877C14.8938 8.83752 16.1625 10.1063 17.7813 10.6469L21.4125 11.8563C21.5478 11.9011 21.6656 11.9874 21.7491 12.103C21.8326 12.2185 21.8775 12.3575 21.8775 12.5C21.8775 12.6426 21.8326 12.7815 21.7491 12.8971C21.6656 13.0126 21.5478 13.099 21.4125 13.1438L17.7813 14.3531C16.9824 14.6183 16.2565 15.0662 15.6614 15.6614C15.0662 16.2565 14.6183 16.9824 14.3531 17.7813L13.1438 21.4125C13.099 21.5479 13.0126 21.6656 12.8971 21.7491C12.7815 21.8326 12.6426 21.8775 12.5 21.8775C12.3575 21.8775 12.2185 21.8326 12.103 21.7491C11.9874 21.6656 11.9011 21.5479 11.8563 21.4125L10.6469 17.7813C10.3818 16.9824 9.9338 16.2565 9.33865 15.6614C8.74349 15.0662 8.0176 14.6183 7.21877 14.3531L3.58752 13.1438C3.45219 13.099 3.33442 13.0126 3.25095 12.8971C3.16748 12.7815 3.12256 12.6426 3.12256 12.5C3.12256 12.3575 3.16748 12.2185 3.25095 12.103C3.33442 11.9874 3.45219 11.9011 3.58752 11.8563L7.21877 10.6469C8.0176 10.3818 8.74349 9.9338 9.33865 9.33865C9.9338 8.74349 10.3818 8.0176 10.6469 7.21877L11.8563 3.58752ZM33.9469 0.309395C33.9777 0.220415 34.0355 0.143258 34.1123 0.0886504C34.189 0.0340432 34.2808 0.00469971 34.375 0.00469971C34.4692 0.00469971 34.561 0.0340432 34.6378 0.0886504C34.7145 0.143258 34.7723 0.220415 34.8031 0.309395L35.6094 2.72815C35.9688 3.8094 36.8156 4.65627 37.8969 5.01565L40.3156 5.8219C40.4046 5.85274 40.4818 5.91055 40.5364 5.98728C40.591 6.06401 40.6203 6.15584 40.6203 6.25002C40.6203 6.3442 40.591 6.43603 40.5364 6.51276C40.4818 6.58949 40.4046 6.6473 40.3156 6.67815L37.8969 7.4844C37.3645 7.66252 36.8808 7.96186 36.4838 8.35882C36.0869 8.75578 35.7875 9.23952 35.6094 9.7719L34.8031 12.1906C34.7723 12.2796 34.7145 12.3568 34.6378 12.4114C34.561 12.466 34.4692 12.4953 34.375 12.4953C34.2808 12.4953 34.189 12.466 34.1123 12.4114C34.0355 12.3568 33.9777 12.2796 33.9469 12.1906L33.1406 9.7719C32.9625 9.23952 32.6632 8.75578 32.2662 8.35882C31.8693 7.96186 31.3855 7.66252 30.8531 7.4844L28.4375 6.67815C28.3485 6.6473 28.2714 6.58949 28.2168 6.51276C28.1622 6.43603 28.1328 6.3442 28.1328 6.25002C28.1328 6.15584 28.1622 6.06401 28.2168 5.98728C28.2714 5.91055 28.3485 5.85274 28.4375 5.8219L30.8563 5.01565C31.9375 4.65627 32.7844 3.8094 33.1438 2.72815L33.9469 0.309395Z" fill="#3FAEFF"/>
</g>
<defs>
<clipPath id="clip0_33_1738">
<rect width="50" height="50" fill="white"/>
</clipPath>
</defs>
</svg>
