<svg width="71" height="70" viewBox="0 0 71 70" fill="none" xmlns="http://www.w3.org/2000/svg">
<circle cx="35.5" cy="35" r="35" fill="#3FAEFF"/>
<path d="M47.3828 25.7C47.5264 25.8432 47.6403 26.0133 47.718 26.2006C47.7957 26.3879 47.8358 26.5887 47.8358 26.7915C47.8358 26.9943 47.7957 27.1951 47.718 27.3824C47.6403 27.5697 47.5264 27.7398 47.3828 27.883L33.5078 41.758C33.3646 41.9016 33.1945 42.0155 33.0072 42.0932C32.8199 42.1709 32.6191 42.2109 32.4163 42.2109C32.2136 42.2109 32.0128 42.1709 31.8255 42.0932C31.6382 42.0155 31.468 41.9016 31.3248 41.758L25.1582 35.5913C24.8687 35.3018 24.7061 34.9092 24.7061 34.4998C24.7061 34.0904 24.8687 33.6978 25.1582 33.4083C25.4477 33.1188 25.8403 32.9562 26.2497 32.9562C26.6591 32.9562 27.0517 33.1188 27.3412 33.4083L32.4163 38.4866L45.1998 25.7C45.343 25.5564 45.5132 25.4425 45.7005 25.3648C45.8878 25.2871 46.0886 25.2471 46.2913 25.2471C46.4941 25.2471 46.6949 25.2871 46.8822 25.3648C47.0695 25.4425 47.2396 25.5564 47.3828 25.7Z" fill="white"/>
</svg>
