<svg width="29" height="28" viewBox="0 0 29 28" fill="none" xmlns="http://www.w3.org/2000/svg">
<g clip-path="url(#clip0_213_324)">
<path d="M8.68451 4.80426L8.68451 4.80426C7.06599 5.53452 5.68843 7.4174 5.75215 9.26397C5.79871 10.5698 6.288 14.4655 10.1996 18.5832C14.1089 22.6964 17.7944 23.2008 19.006 23.2477C20.7038 23.3134 22.4785 21.9232 23.1908 20.174L23.1915 20.1722C23.2419 20.0495 23.2606 19.9128 23.2442 19.7774C23.2279 19.6424 23.1778 19.5177 23.1027 19.4158C22.1024 18.0684 20.7517 17.0868 19.4569 16.1459C19.3773 16.088 19.2979 16.0303 19.2187 15.9726L8.68451 4.80426ZM8.68451 4.80426L8.68636 4.80342M8.68451 4.80426L8.68636 4.80342M8.68636 4.80342C8.78595 4.75817 8.89276 4.74174 8.99734 4.75385C9.10175 4.76595 9.20474 4.80661 9.29577 4.8758C10.5564 5.84305 11.473 7.26657 12.3263 8.59194C12.4173 8.73323 12.5075 8.8734 12.5974 9.01178L12.5977 9.0122M8.68636 4.80342L12.5977 9.0122M12.5977 9.0122C12.6984 9.16707 12.7442 9.36089 12.7204 9.55545C12.6977 9.74114 12.6144 9.9051 12.4944 10.0221L10.6674 11.4501C10.4339 11.6295 10.2771 11.885 10.2159 12.1647C10.1543 12.446 10.1911 12.7423 10.3228 13.0008L10.3228 13.0009M12.5977 9.0122L10.3228 13.0009M10.3228 13.0009L10.3265 13.0079M10.3228 13.0009L10.3265 13.0079M10.3265 13.0079C10.7659 13.848 11.5514 15.111 12.4724 16.0802C13.393 17.0491 14.6476 17.9284 15.4952 18.4393L15.4952 18.4393M10.3265 13.0079L15.4952 18.4393M15.4952 18.4393L15.5009 18.4427M15.4952 18.4393L15.5009 18.4427M15.5009 18.4427C15.7743 18.6042 16.1013 18.6514 16.4114 18.5693M15.5009 18.4427L16.4114 18.5693M16.4114 18.5693C16.7182 18.488 16.9735 18.29 17.1336 18.0283M16.4114 18.5693L17.1336 18.0283M17.1336 18.0283L18.3253 16.1194C18.4357 15.9733 18.587 15.8842 18.744 15.8575C18.9059 15.83 19.0753 15.8682 19.2186 15.9725L17.1336 18.0283Z" stroke="#3FAEFF" stroke-width="1.5"/>
</g>
<defs>
<clipPath id="clip0_213_324">
<rect width="28" height="28" fill="white" transform="translate(0.5)"/>
</clipPath>
</defs>
</svg>
