<svg width="30" height="30" viewBox="0 0 30 30" fill="none" xmlns="http://www.w3.org/2000/svg">
<path d="M16.4224 16.1314H16.2724V16.2814V24.6776H13.7276V16.2814V16.1314H13.5776H10.7327C10.0317 16.1314 9.46033 15.5559 9.46033 14.8422C9.46033 14.1285 10.0317 13.553 10.7327 13.553H13.5776H13.7276V13.403V10.5245C13.7276 8.22116 15.5725 6.35691 17.8448 6.35691H18.556C19.2571 6.35691 19.8284 6.93245 19.8284 7.64612C19.8284 8.3598 19.2571 8.93534 18.556 8.93534H17.8448C16.9747 8.93534 16.2724 9.64853 16.2724 10.5245V13.403V13.553H16.4224H19.2672C19.9683 13.553 20.5396 14.1285 20.5396 14.8422C20.5396 15.5559 19.9683 16.1314 19.2672 16.1314H16.4224Z" fill="#202020" stroke="#F7F7F7" stroke-width="0.3"/>
</svg>
