<svg width="25" height="25" viewBox="0 0 25 25" fill="none" xmlns="http://www.w3.org/2000/svg">
<path d="M13.6845 13.4178H13.5345V13.5678V20.5396H11.4638V13.5678V13.4178H11.3138H8.94316C8.37301 13.4178 7.90781 12.9496 7.90781 12.3684C7.90781 11.7872 8.37301 11.3191 8.94316 11.3191H11.3138H11.4638V11.1691V8.7704C11.4638 6.86444 12.9904 5.32236 14.8699 5.32236H15.4626C16.0327 5.32236 16.4979 5.79051 16.4979 6.37171C16.4979 6.95291 16.0327 7.42105 15.4626 7.42105H14.8699C14.1307 7.42105 13.5345 8.02685 13.5345 8.7704V11.1691V11.3191H13.6845H16.0552C16.6254 11.3191 17.0906 11.7872 17.0906 12.3684C17.0906 12.9497 16.6254 13.4178 16.0552 13.4178H13.6845Z" fill="#3FAEFF" stroke="#F7F7F7" stroke-width="0.3"/>
</svg>
