<svg width="25" height="25" viewBox="0 0 25 25" fill="none" xmlns="http://www.w3.org/2000/svg">
<path d="M16.6667 3.22524C19.4879 3.22524 21.775 5.51233 21.775 8.33358V16.6669C21.775 19.4881 19.4879 21.7752 16.6667 21.7752H8.33333C5.51208 21.7752 3.225 19.4881 3.225 16.6669L3.225 8.33358C3.225 5.51233 5.51208 3.22524 8.33333 3.22524L16.6667 3.22524ZM16.6667 5.10858L8.33333 5.10858C6.55222 5.10858 5.10833 6.55246 5.10833 8.33358L5.10833 16.6669C5.10833 18.4481 6.55222 19.8919 8.33333 19.8919H16.6667C18.4478 19.8919 19.8917 18.4481 19.8917 16.6669V8.33358C19.8917 6.55246 18.4478 5.10858 16.6667 5.10858ZM12.5 8.43358C14.7459 8.43358 16.5667 10.2543 16.5667 12.5002C16.5667 14.7462 14.7459 16.5669 12.5 16.5669C10.254 16.5669 8.43333 14.7462 8.43333 12.5002C8.43333 10.2543 10.254 8.43358 12.5 8.43358ZM12.5 10.3169C11.2941 10.3169 10.3167 11.2944 10.3167 12.5002C10.3167 13.7061 11.2941 14.6836 12.5 14.6836C13.7059 14.6836 14.6833 13.7061 14.6833 12.5002C14.6833 11.2944 13.7059 10.3169 12.5 10.3169ZM17.1875 6.87108C17.7076 6.87108 18.1292 7.29268 18.1292 7.81274C18.1292 8.33281 17.7076 8.75441 17.1875 8.75441C16.6674 8.75441 16.2458 8.33281 16.2458 7.81274C16.2458 7.29268 16.6674 6.87108 17.1875 6.87108Z" fill="#3FAEFF" stroke="#F7F7F7" stroke-width="0.2"/>
</svg>
