<svg width="30" height="30" viewBox="0 0 30 30" fill="none" xmlns="http://www.w3.org/2000/svg">
<path d="M20 3.85012C23.3965 3.85012 26.15 6.60358 26.15 10.0001V20.0001C26.15 23.3966 23.3965 26.1501 20 26.1501H10C6.60345 26.1501 3.85 23.3966 3.85 20.0001L3.85 10.0001C3.85 6.60358 6.60345 3.85012 10 3.85012L20 3.85012ZM20 6.15012L10 6.15012C7.87371 6.15012 6.15 7.87383 6.15 10.0001L6.15 20.0001C6.15 22.1265 7.87371 23.8501 10 23.8501H20C22.1264 23.8501 23.85 22.1265 23.85 20.0001V10.0001C23.85 7.87383 22.1264 6.15012 20 6.15012ZM15 10.1001C17.7061 10.1001 19.9 12.2939 19.9 15.0001C19.9 17.7063 17.7061 19.9001 15 19.9001C12.2938 19.9001 10.1 17.7063 10.1 15.0001C10.1 12.2939 12.2938 10.1001 15 10.1001ZM15 12.4001C13.564 12.4001 12.4 13.5641 12.4 15.0001C12.4 16.4361 13.564 17.6001 15 17.6001C16.436 17.6001 17.6 16.4361 17.6 15.0001C17.6 13.5641 16.436 12.4001 15 12.4001ZM20.625 8.22512C21.2601 8.22512 21.775 8.74 21.775 9.37512C21.775 10.0102 21.2601 10.5251 20.625 10.5251C19.9899 10.5251 19.475 10.0102 19.475 9.37512C19.475 8.74 19.9899 8.22512 20.625 8.22512Z" fill="#202020" stroke="#F7F7F7" stroke-width="0.2"/>
</svg>
