<svg width="30" height="30" viewBox="0 0 30 30" fill="none" xmlns="http://www.w3.org/2000/svg">
<path d="M3.38499 14.6305L3.34619 14.5383L3.385 14.6305L24.7603 5.63026L24.7216 5.53817L24.7603 5.63026C26.0477 5.08821 27.4278 6.17679 27.2005 7.55501L24.3644 24.7509C24.1016 26.3436 22.3536 27.2546 20.8951 26.4624C19.6232 25.7715 17.7374 24.7089 16.0387 23.599C15.1904 23.0446 14.3704 22.4667 13.6906 21.9076L13.6905 21.9075C13.2462 21.5422 12.8121 21.1455 12.4685 20.7345L12.4423 20.7032L12.4017 20.6992C11.1378 20.5738 9.55439 20.1299 8.09478 19.6487C6.31749 19.0627 4.54459 18.3586 3.38555 17.8782C1.90478 17.2643 1.97112 15.2257 3.38499 14.6305ZM5.70466 16.1493L5.47793 16.2447L5.70696 16.3345C6.64666 16.7029 7.73352 17.1078 8.81495 17.4644L8.81496 17.4644C10.2188 17.9272 11.5042 18.2704 12.4307 18.3889L12.4794 18.3951L12.5141 18.3604L17.9369 12.9376L17.8662 12.8669L17.9369 12.9376C18.3859 12.4885 19.1141 12.4885 19.5632 12.9376C20.0123 13.3867 20.0123 14.1149 19.5632 14.564L14.6118 19.5155L14.5393 19.588L14.6136 19.6586C14.7627 19.8004 14.9412 19.9582 15.1514 20.1311L15.1514 20.1312C15.7412 20.6161 16.4848 21.1429 17.2968 21.6736L17.2968 21.6736C18.9022 22.7225 20.7042 23.7405 21.9533 24.4198L22.0768 24.487L22.0997 24.3482L24.7468 8.2978L24.7763 8.11907L24.6093 8.18937L5.70466 16.1493Z" fill="#202020" stroke="#F7F7F7" stroke-width="0.2"/>
</svg>
