<svg width="24" height="24" viewBox="0 0 24 24" fill="none" xmlns="http://www.w3.org/2000/svg">
<path d="M2.77403 11.8611L2.77404 11.8611L19.8743 4.66092C20.7809 4.2792 21.7528 5.04581 21.5927 6.01638L19.3238 19.7731C19.132 20.9362 17.8575 21.5965 16.7973 21.0206C15.7814 20.4688 14.2774 19.6212 12.9241 18.7369C12.2481 18.2952 11.5977 17.8366 11.0605 17.3948L11.0605 17.3948C10.7087 17.1055 10.3705 16.7958 10.1053 16.4786L10.0398 16.4003L9.9382 16.3902C8.94688 16.2919 7.69516 15.9419 6.52913 15.5575C5.113 15.0906 3.69905 14.5291 2.77361 14.1455C1.73723 13.7159 1.77324 12.2824 2.77403 11.8611ZM9.91353 16.639C10.1929 16.9732 10.5445 17.2942 10.9017 17.5879L6.45085 15.795C7.61932 16.1802 8.8931 16.5378 9.91353 16.639ZM4.49783 12.7628L3.931 13.0014L4.50359 13.2259C5.2572 13.5214 6.12977 13.8464 6.99879 14.133L6.99882 14.133C8.1246 14.5041 9.16531 14.7828 9.92304 14.8797L10.0448 14.8953L10.1315 14.8085L14.4698 10.4703L14.4698 10.4703C14.7626 10.1775 15.2375 10.1775 15.5304 10.4703L15.5304 10.4703C15.8233 10.7632 15.8233 11.2381 15.5304 11.531L15.7072 11.7078L15.5304 11.531L11.5693 15.4922L11.388 15.6735L11.5738 15.8502C11.6965 15.9667 11.8423 16.0957 12.0132 16.2362L12.0132 16.2363C12.4917 16.6297 13.0922 17.0549 13.7445 17.4812L13.7446 17.4813C15.0345 18.324 16.4806 19.1409 17.4815 19.6852L17.7903 19.8532L17.8476 19.5062L19.9653 6.66594L20.039 6.21912L19.6216 6.39485L4.49783 12.7628Z" fill="#3FAEFF" stroke="#F1F4F8" stroke-width="0.5"/>
</svg>
