<svg width="25" height="25" viewBox="0 0 25 25" fill="none" xmlns="http://www.w3.org/2000/svg">
<path d="M2.82631 12.2076L2.82632 12.2076L20.6391 4.70743L20.6003 4.61526L20.6391 4.70743C21.6998 4.26081 22.8369 5.15774 22.6496 6.29331L20.2862 20.6232C20.0691 21.9396 18.6245 22.692 17.4196 22.0375C16.3598 21.4619 14.7888 20.5766 13.3737 19.652C12.6671 19.1902 11.9843 18.709 11.4184 18.2436L11.4184 18.2436C11.0485 17.9394 10.6876 17.6096 10.4023 17.2683L10.3761 17.2369L10.3354 17.2329C9.2841 17.1286 7.96606 16.7592 6.74989 16.3583C5.26937 15.8701 3.79238 15.2835 2.82669 14.8833C1.60725 14.3777 1.66086 12.6982 2.82631 12.2076ZM4.74643 13.4425L4.5197 13.538L4.74874 13.6278C5.532 13.9349 6.43801 14.2724 7.33959 14.5697L7.3396 14.5697C8.50973 14.9554 9.58208 15.2418 10.3558 15.3408L10.4045 15.347L10.4392 15.3123L14.9582 10.7933L14.8875 10.7226L14.9582 10.7933C15.3259 10.4256 15.9222 10.4256 16.2899 10.7933L16.3606 10.7226L16.2899 10.7933C16.6576 11.161 16.6576 11.7573 16.2899 12.125L12.1637 16.2513L12.0912 16.3238L12.1656 16.3945C12.2901 16.5129 12.4391 16.6447 12.6146 16.789L12.6146 16.789C13.1067 17.1937 13.7269 17.633 14.4039 18.0755L14.4039 18.0755C15.7423 18.9499 17.2444 19.7985 18.2854 20.3646L18.409 20.4318L18.4319 20.293L20.6378 6.91773L20.6673 6.739L20.5003 6.8093L4.74643 13.4425Z" fill="#3FAEFF" stroke="#F7F7F7" stroke-width="0.2"/>
</svg>
